<?xml version="1.0" encoding="iso-8859-1"?>
<!-- Generator: Adobe Illustrator 19.0.0, SVG Export Plug-In . SVG Version: 6.00 Build 0)  -->
<svg version="1.1" id="Capa_1" xmlns="http://www.w3.org/2000/svg" xmlns:xlink="http://www.w3.org/1999/xlink" x="0px" y="0px"
	 viewBox="0 0 60 60" style="enable-background:new 0 0 60 60;" xml:space="preserve">
<g>
	<circle cx="22" cy="16.5" r="1"/>
	<circle cx="44" cy="19.5" r="1"/>
	<circle cx="40" cy="35.5" r="1"/>
	<circle cx="34" cy="8.5" r="1"/>
	<path d="M59,39.5h-3.96c1.109-2.977,1.674-6.094,1.674-9.286C56.714,15.483,44.73,3.5,30,3.5c-6.102,0-11.729,2.061-16.231,5.517
		L13.745,8.99l-0.748,0.619c-0.981,0.81-1.901,1.701-2.76,2.649c-0.001,0.001-0.003,0.003-0.004,0.004
		c-0.252,0.279-0.498,0.563-0.738,0.852c-0.054,0.065-0.109,0.129-0.162,0.194c-0.208,0.255-0.411,0.514-0.61,0.776
		c-0.077,0.102-0.154,0.203-0.229,0.306c-0.182,0.247-0.36,0.497-0.534,0.75c-0.08,0.116-0.157,0.233-0.235,0.35
		c-0.168,0.254-0.334,0.509-0.493,0.769c-0.07,0.114-0.137,0.229-0.205,0.344c-0.16,0.27-0.318,0.54-0.469,0.815
		c-0.057,0.105-0.111,0.212-0.167,0.317c-0.12,0.227-0.246,0.451-0.359,0.681l-0.43,0.87l0.026,0.014
		c-1.499,3.334-2.34,7.026-2.34,10.913c0,3.192,0.564,6.309,1.674,9.286H1c-0.553,0-1,0.447-1,1s0.447,1,1,1h4.785h48.43H59
		c0.553,0,1-0.447,1-1S59.553,39.5,59,39.5z M14,14c0,2.481-2.019,4.5-4.5,4.5c-0.401,0-0.792-0.052-1.17-0.154
		c0.05-0.09,0.103-0.178,0.154-0.268c0.238-0.42,0.489-0.833,0.751-1.24c0.082-0.127,0.161-0.257,0.246-0.383
		c0.302-0.45,0.624-0.886,0.955-1.316c0.119-0.154,0.238-0.307,0.36-0.458c0.321-0.397,0.653-0.783,0.997-1.159
		c0.163-0.177,0.33-0.349,0.498-0.522c0.249-0.257,0.505-0.506,0.764-0.752c0.134-0.127,0.267-0.255,0.404-0.379
		C13.811,12.521,14,13.252,14,14z M7.103,39.5c-1.206-2.963-1.816-6.084-1.816-9.286c0-3.583,0.773-6.987,2.15-10.063
		C8.101,20.374,8.797,20.5,9.5,20.5c3.584,0,6.5-2.916,6.5-6.5c0-1.216-0.35-2.395-0.987-3.419C19.174,7.397,24.368,5.5,30,5.5
		c13.627,0,24.714,11.087,24.714,24.714c0,2.11-0.271,4.184-0.797,6.202C53.606,36.466,53.298,36.5,53,36.5c-3.309,0-6-2.691-6-6
		c0-0.553-0.447-1-1-1s-1,0.447-1,1c0,4.411,3.589,8,8,8c0.093,0,0.19-0.015,0.284-0.018c-0.122,0.341-0.249,0.681-0.386,1.018
		H7.103z"/>
	<path d="M54,44.5H6c-0.553,0-1,0.447-1,1s0.447,1,1,1h48c0.553,0,1-0.447,1-1S54.553,44.5,54,44.5z"/>
	<path d="M49,49.5H11c-0.553,0-1,0.447-1,1s0.447,1,1,1h38c0.553,0,1-0.447,1-1S49.553,49.5,49,49.5z"/>
	<path d="M45,54.5H15c-0.553,0-1,0.447-1,1s0.447,1,1,1h30c0.553,0,1-0.447,1-1S45.553,54.5,45,54.5z"/>
	<polygon points="22.293,26.793 23.707,28.207 29,22.914 29,34.5 31,34.5 31,22.914 36.293,28.207 37.707,26.793 30,19.086 	"/>
	<path d="M14,27.5c-2.206,0-4,1.794-4,4c0,0.553,0.447,1,1,1s1-0.447,1-1c0-1.103,0.897-2,2-2s2,0.897,2,2s-0.897,2-2,2
		c-0.553,0-1,0.447-1,1s0.447,1,1,1c2.206,0,4-1.794,4-4S16.206,27.5,14,27.5z"/>
</g>
<g>
</g>
<g>
</g>
<g>
</g>
<g>
</g>
<g>
</g>
<g>
</g>
<g>
</g>
<g>
</g>
<g>
</g>
<g>
</g>
<g>
</g>
<g>
</g>
<g>
</g>
<g>
</g>
<g>
</g>
</svg>
